HIERARCHY
ROOT Hips
{
	OFFSET 0.000000 100.481300 0.000000
	CHANNELS 6 Xposition Yposition Zposition Xrotation Yrotation Zrotation
	JOINT Spine
	{
		OFFSET -0.279200 12.230698 -2.892100
		CHANNELS 3 Xrotation Yrotation Zrotation
		JOINT Spine1
		{
			OFFSET -0.325700 14.269203 -3.374200
			CHANNELS 3 Xrotation Yrotation Zrotation
			JOINT Spine2
			{
				OFFSET -0.372300 16.307602 -0.352600
				CHANNELS 3 Xrotation Yrotation Zrotation
				JOINT Neck
				{
					OFFSET -0.418800 17.814194 8.416900
					CHANNELS 3 Xrotation Yrotation Zrotation
					JOINT Head
					{
						OFFSET 0.000000 7.031097 3.806800
						CHANNELS 3 Xrotation Yrotation Zrotation
						JOINT HeadTop_End
						{
							OFFSET 0.000000 24.646606 12.978600
							CHANNELS 3 Xrotation Yrotation Zrotation
							End Site
							{
								OFFSET 0.000000 27.854965 0.000000
							}
						}
					}
				}
				JOINT LeftShoulder
				{
					OFFSET 16.952999 14.495407 -7.737500
					CHANNELS 3 Xrotation Yrotation Zrotation
					JOINT LeftArm
					{
						OFFSET 9.308998 -2.777710 0.208600
						CHANNELS 3 Xrotation Yrotation Zrotation
						JOINT LeftForeArm
						{
							OFFSET 29.972298 0.000000 0.000000
							CHANNELS 3 Xrotation Yrotation Zrotation
							JOINT LeftHand
							{
								OFFSET 26.026505 0.000000 0.000000
								CHANNELS 3 Xrotation Yrotation Zrotation
								JOINT LeftHandThumb1
								{
									OFFSET 12.240501 -7.147949 9.207150
									CHANNELS 3 Xrotation Yrotation Zrotation
									JOINT LeftHandThumb2
									{
										OFFSET 4.138618 -2.389435 2.389433
										CHANNELS 3 Xrotation Yrotation Zrotation
										JOINT LeftHandThumb3
										{
											OFFSET 2.726913 -1.574387 1.574386
											CHANNELS 3 Xrotation Yrotation Zrotation
											JOINT LeftHandThumb4
											{
												OFFSET 3.941010 -2.275345 2.275342
												CHANNELS 3 Xrotation Yrotation Zrotation
												End Site
												{
													OFFSET -0.005798 5.087799 0.009903
												}
											}
										}
									}
								}
								JOINT LeftHandIndex1
								{
									OFFSET 24.424698 -1.985611 5.953459
									CHANNELS 3 Xrotation Yrotation Zrotation
									JOINT LeftHandIndex2
									{
										OFFSET 6.426697 0.000000 0.000000
										CHANNELS 3 Xrotation Yrotation Zrotation
										JOINT LeftHandIndex3
										{
											OFFSET 5.337898 0.000000 0.000000
											CHANNELS 3 Xrotation Yrotation Zrotation
											JOINT LeftHandIndex4
											{
												OFFSET 4.409401 0.000000 0.000000
												CHANNELS 3 Xrotation Yrotation Zrotation
												End Site
												{
													OFFSET 0.000000 4.409363 0.014373
												}
											}
										}
									}
								}
								JOINT LeftHandMiddle1
								{
									OFFSET 23.810104 0.000000 0.000000
									CHANNELS 3 Xrotation Yrotation Zrotation
									JOINT LeftHandMiddle2
									{
										OFFSET 7.176498 0.000000 0.000000
										CHANNELS 3 Xrotation Yrotation Zrotation
										JOINT LeftHandMiddle3
										{
											OFFSET 6.774902 0.000000 0.000000
											CHANNELS 3 Xrotation Yrotation Zrotation
											JOINT LeftHandMiddle4
											{
												OFFSET 5.403328 0.000000 0.000000
												CHANNELS 3 Xrotation Yrotation Zrotation
												End Site
												{
													OFFSET -0.027702 5.403244 0.017414
												}
											}
										}
									}
								}
								JOINT LeftHandRing1
								{
									OFFSET 22.908401 -0.839279 -6.020567
									CHANNELS 3 Xrotation Yrotation Zrotation
									JOINT LeftHandRing2
									{
										OFFSET 6.337502 0.000000 0.000000
										CHANNELS 3 Xrotation Yrotation Zrotation
										JOINT LeftHandRing3
										{
											OFFSET 5.779297 0.000000 0.000000
											CHANNELS 3 Xrotation Yrotation Zrotation
											JOINT LeftHandRing4
											{
												OFFSET 4.965698 0.000000 0.000000
												CHANNELS 3 Xrotation Yrotation Zrotation
												End Site
												{
													OFFSET 0.000000 4.965668 0.016186
												}
											}
										}
									}
								}
								JOINT LeftHandPinky1
								{
									OFFSET 20.037003 -1.530319 -10.950146
									CHANNELS 3 Xrotation Yrotation Zrotation
									JOINT LeftHandPinky2
									{
										OFFSET 5.254700 0.000000 0.000000
										CHANNELS 3 Xrotation Yrotation Zrotation
										JOINT LeftHandPinky3
										{
											OFFSET 4.810204 0.000000 0.000000
											CHANNELS 3 Xrotation Yrotation Zrotation
											JOINT LeftHandPinky4
											{
												OFFSET 3.647202 0.000000 0.000000
												CHANNELS 3 Xrotation Yrotation Zrotation
												End Site
												{
													OFFSET 0.000000 3.647186 0.011889
												}
											}
										}
									}
								}
							}
						}
					}
				}
				JOINT RightShoulder
				{
					OFFSET -15.141001 14.495407 -7.737500
					CHANNELS 3 Xrotation Yrotation Zrotation
					JOINT RightArm
					{
						OFFSET -9.308998 -2.777710 0.208500
						CHANNELS 3 Xrotation Yrotation Zrotation
						JOINT RightForeArm
						{
							OFFSET -29.972300 0.000000 0.000000
							CHANNELS 3 Xrotation Yrotation Zrotation
							JOINT RightHand
							{
								OFFSET -26.026505 0.000000 0.000000
								CHANNELS 3 Xrotation Yrotation Zrotation
								JOINT RightHandThumb1
								{
									OFFSET -12.240601 -7.148026 9.207092
									CHANNELS 3 Xrotation Yrotation Zrotation
									JOINT RightHandThumb2
									{
										OFFSET -4.138618 -2.389435 2.389433
										CHANNELS 3 Xrotation Yrotation Zrotation
										JOINT RightHandThumb3
										{
											OFFSET -2.726974 -1.574417 1.574421
											CHANNELS 3 Xrotation Yrotation Zrotation
											JOINT RightHandThumb4
											{
												OFFSET -3.941010 -2.275345 2.275343
												CHANNELS 3 Xrotation Yrotation Zrotation
												End Site
												{
													OFFSET 0.005814 5.087799 0.009927
												}
											}
										}
									}
								}
								JOINT RightHandIndex1
								{
									OFFSET -24.424698 -1.985657 5.953444
									CHANNELS 3 Xrotation Yrotation Zrotation
									JOINT RightHandIndex2
									{
										OFFSET -6.426697 0.000000 0.000000
										CHANNELS 3 Xrotation Yrotation Zrotation
										JOINT RightHandIndex3
										{
											OFFSET -5.337898 0.000000 0.000000
											CHANNELS 3 Xrotation Yrotation Zrotation
											JOINT RightHandIndex4
											{
												OFFSET -4.409401 0.000000 0.000000
												CHANNELS 3 Xrotation Yrotation Zrotation
												End Site
												{
													OFFSET 0.000000 4.409363 0.014408
												}
											}
										}
									}
								}
								JOINT RightHandMiddle1
								{
									OFFSET -23.810097 0.000000 0.000000
									CHANNELS 3 Xrotation Yrotation Zrotation
									JOINT RightHandMiddle2
									{
										OFFSET -7.176498 0.000000 0.000000
										CHANNELS 3 Xrotation Yrotation Zrotation
										JOINT RightHandMiddle3
										{
											OFFSET -6.774902 0.000000 0.000000
											CHANNELS 3 Xrotation Yrotation Zrotation
											JOINT RightHandMiddle4
											{
												OFFSET -5.403328 0.000000 0.000000
												CHANNELS 3 Xrotation Yrotation Zrotation
												End Site
												{
													OFFSET 0.027702 5.403244 0.017457
												}
											}
										}
									}
								}
								JOINT RightHandRing1
								{
									OFFSET -22.908302 -0.839325 -6.020576
									CHANNELS 3 Xrotation Yrotation Zrotation
									JOINT RightHandRing2
									{
										OFFSET -6.337502 0.000000 0.000000
										CHANNELS 3 Xrotation Yrotation Zrotation
										JOINT RightHandRing3
										{
											OFFSET -5.779297 0.000000 0.000000
											CHANNELS 3 Xrotation Yrotation Zrotation
											JOINT RightHandRing4
											{
												OFFSET -4.965698 0.000000 0.000000
												CHANNELS 3 Xrotation Yrotation Zrotation
												End Site
												{
													OFFSET 0.000000 4.965668 0.016226
												}
											}
										}
									}
								}
								JOINT RightHandPinky1
								{
									OFFSET -20.037003 -1.530334 -10.950259
									CHANNELS 3 Xrotation Yrotation Zrotation
									JOINT RightHandPinky2
									{
										OFFSET -5.254700 0.000000 0.000000
										CHANNELS 3 Xrotation Yrotation Zrotation
										JOINT RightHandPinky3
										{
											OFFSET -4.810204 0.000000 0.000000
											CHANNELS 3 Xrotation Yrotation Zrotation
											JOINT RightHandPinky4
											{
												OFFSET -3.647202 0.000000 0.000000
												CHANNELS 3 Xrotation Yrotation Zrotation
												End Site
												{
													OFFSET 0.000000 3.647186 0.011917
												}
											}
										}
									}
								}
							}
						}
					}
				}
			}
		}
	}
	JOINT LeftUpLeg
	{
		OFFSET 15.427100 -6.655098 0.678600
		CHANNELS 3 Xrotation Yrotation Zrotation
		JOINT LeftLeg
		{
			OFFSET 4.081073 -39.591068 13.024000
			CHANNELS 3 Xrotation Yrotation Zrotation
			JOINT LeftFoot
			{
				OFFSET -4.081074 -37.707932 -15.979700
				CHANNELS 3 Xrotation Yrotation Zrotation
				JOINT LeftToeBase
				{
					OFFSET 5.346399 -15.068900 20.645000
					CHANNELS 3 Xrotation Yrotation Zrotation
					JOINT LeftToe_End
					{
						OFFSET 2.754700 0.931300 11.300900
						CHANNELS 3 Xrotation Yrotation Zrotation
						End Site
						{
							OFFSET 0.000000 11.669021 0.000000
						}
					}
				}
			}
		}
	}
	JOINT RightUpLeg
	{
		OFFSET -15.569500 -6.655098 0.678600
		CHANNELS 3 Xrotation Yrotation Zrotation
		JOINT RightLeg
		{
			OFFSET -4.081825 -39.591045 13.023800
			CHANNELS 3 Xrotation Yrotation Zrotation
			JOINT RightFoot
			{
				OFFSET 4.081824 -37.707954 -15.979600
				CHANNELS 3 Xrotation Yrotation Zrotation
				JOINT RightToeBase
				{
					OFFSET -5.346400 -15.068900 20.645000
					CHANNELS 3 Xrotation Yrotation Zrotation
					JOINT RightToe_End
					{
						OFFSET -2.754700 0.931300 11.300900
						CHANNELS 3 Xrotation Yrotation Zrotation
						End Site
						{
							OFFSET 0.000000 11.669021 0.000000
						}
					}
				}
			}
		}
	}
}
MOTION
Frames: 4
Frame Time: 0.033333
-18.176613 63.448395 292.982330 8.248729 10.757066 -5.951940 10.947625 -6.156131 1.434843 6.958398 -4.338311 0.415303 6.906531 -4.209731 0.808769 -4.151456 -4.828483 -1.599877 -13.240044 -27.925688 0.703062 -0.000001 0.000000 0.000000 -5.029593 -9.842013 -1.035781 -76.781845 -44.682275 -84.054466 0.004878 -87.236098 0.004843 3.734576 -31.149467 13.904116 7.210489 -10.033295 13.716040 5.369161 8.351766 0.898302 -7.882177 4.690856 13.492212 -0.000002 0.000001 -0.000000 -0.554802 -10.321889 -3.450088 0.057894 0.822448 -8.052769 0.139059 1.270155 -12.495420 0.000001 -0.000002 -0.000002 -1.200591 -2.954845 -12.377852 0.104333 1.101906 -10.818198 0.056892 0.815281 -7.982059 -0.000000 0.000000 0.000001 -0.506680 1.627423 -18.722621 0.086166 1.002132 -9.828203 0.108511 1.123499 -11.033021 0.000001 -0.000003 -0.000001 2.798884 9.470788 -24.957523 0.005153 0.245840 -2.399747 0.113497 1.148772 -11.284354 0.000001 0.000001 -0.000003 -7.550321 17.519884 -1.882373 -15.532692 35.342602 0.666288 -0.000001 24.217863 -0.000001 10.742720 -8.787853 -50.141146 -19.882860 7.565577 10.896703 7.150133 -21.083747 -2.643068 -6.927627 3.639885 -12.626842 0.000002 0.000001 -0.000001 2.050541 9.524782 -9.563129 0.147818 -1.165230 14.459031 0.037710 -0.592093 7.287983 -0.000001 -0.000000 0.000000 0.285494 0.831054 -4.523530 0.313778 -1.682130 21.130826 0.107979 -0.998113 12.348875 -0.000001 -0.000004 0.000000 0.666439 -8.146076 6.141645 0.111976 -1.016138 12.575837 0.063716 -0.768536 9.477973 0.000001 -0.000001 -0.000001 -3.270370 -18.947249 17.373139 0.065975 -0.781962 9.645045 0.063793 -0.768991 9.483631 -0.000000 0.000002 -0.000001 -49.703836 -20.632120 42.806933 77.593059 -13.427798 -5.991461 -3.332368 -0.317992 -17.410079 -20.434094 0.043839 -2.265381 -0.000000 0.000002 -0.000000 -57.147486 15.618718 -21.167497 58.079626 7.724333 -5.881079 -6.747734 -1.031368 28.218939 -11.673360 -0.000001 -0.000005 -0.000000 -0.000000 0.000000 
-16.244434 66.177910 289.090759 8.812336 9.944925 -6.210071 10.855137 -6.840019 1.446299 6.934575 -4.679016 0.603031 6.869396 -4.571192 0.998794 -3.097605 -4.650899 -0.865683 -14.869576 -26.100613 0.463720 -0.000000 0.000001 -0.000001 -4.913678 -9.730083 -0.878485 -76.997583 -44.836691 -84.167055 -0.006304 -88.047928 -0.006203 8.327724 -31.758208 16.123819 7.194553 -10.134280 14.119862 5.369272 8.351762 0.898220 -7.873842 4.812189 13.520299 0.000002 0.000000 0.000000 -0.434847 -10.577759 -2.882485 0.051646 0.776989 -7.604803 0.128061 1.219482 -11.989173 0.000000 -0.000002 -0.000001 -1.158738 -3.111081 -11.763562 0.089061 1.018706 -9.992448 0.045568 0.730083 -7.143273 -0.000000 0.000001 -0.000000 -0.508117 1.494298 -17.895528 0.075552 0.938804 -9.201484 0.092647 1.038834 -10.192002 0.000001 -0.000002 0.000001 2.666395 9.319113 -24.322647 0.002223 0.161361 -1.574851 0.105858 1.109814 -10.896861 -0.000000 -0.000001 -0.000001 -7.541763 17.710706 -1.189723 -20.632195 36.156822 4.666500 -0.000000 29.612975 -0.000000 18.813380 -7.593714 -61.273818 -18.633910 6.405237 10.442216 7.262923 -22.051650 -2.714112 -6.935419 3.684419 -12.616038 0.000000 -0.000001 0.000000 1.765790 7.869361 -9.653536 0.206699 -1.373434 17.116227 0.098994 -0.956096 11.821583 0.000002 -0.000000 0.000000 0.170535 0.466236 -2.549544 0.456098 -2.011844 25.544694 0.171325 -1.252852 15.573007 0.000000 0.000000 -0.000002 0.689208 -6.319764 9.912210 0.189401 -1.315989 16.379678 0.090287 -0.913535 11.287992 -0.000003 -0.000002 0.000000 -5.238470 -15.664713 20.782883 0.119508 -1.049367 12.994080 0.062987 -0.764190 9.423806 0.000000 0.000002 0.000001 -48.305123 -13.708335 39.823117 70.954676 -14.860639 -3.832770 -11.214171 1.767202 -19.332154 -18.478175 0.000014 0.000003 0.000000 -0.000000 0.000000 -55.630795 16.972366 -19.812417 50.350068 4.993796 -6.107034 -0.724957 -1.429199 29.093010 -13.178220 0.000000 0.000001 -0.000001 -0.000000 -0.000000 
-13.763444 69.564827 284.482208 10.133779 8.666362 -6.772827 10.820584 -7.092568 1.840499 6.917503 -4.788504 0.987179 6.833793 -4.706440 1.391325 -3.013850 -4.525230 0.229257 -17.013530 -23.802103 -0.455562 -0.000000 -0.000002 -0.000002 -4.791591 -9.423764 -0.602593 -78.551820 -44.767642 -84.885926 0.001434 -88.276548 0.001519 12.452626 -31.885642 20.208530 7.197717 -10.192079 14.475666 5.369385 8.351768 0.898080 -7.864857 4.929354 13.547813 -0.000000 0.000000 0.000001 -0.313849 -10.819205 -2.332661 0.045854 0.732363 -7.165630 0.118586 1.173969 -11.535296 -0.000001 0.000000 -0.000002 -1.118658 -3.270761 -11.179232 0.074858 0.934536 -9.159246 0.036311 0.651996 -6.375794 0.000001 -0.000003 -0.000000 -0.510314 1.356565 -17.105797 0.065520 0.874701 -8.568155 0.078839 0.958909 -9.400350 0.000002 -0.000002 0.000000 2.535556 9.163208 -23.696197 0.000590 0.083127 -0.811196 0.099517 1.076364 -10.564511 -0.000004 0.000001 -0.000002 -7.417626 18.102633 -1.094923 -21.343390 37.267479 4.020844 0.000002 30.883346 -0.000000 21.300983 -5.193978 -64.612292 -18.233695 6.341683 10.469930 7.282797 -22.222686 -2.726511 -6.944248 3.734930 -12.603772 -0.000001 -0.000000 0.000001 1.712582 7.564766 -9.666975 0.214194 -1.397540 17.426367 0.112623 -1.019057 12.612556 -0.000000 -0.000003 -0.000003 0.147465 0.356577 -2.133594 0.469884 -2.040407 25.934522 0.183944 -1.297276 16.140020 -0.000000 0.000001 0.000002 0.678184 -6.079621 10.491714 0.201153 -1.355331 16.883912 0.094706 -0.935402 11.561783 0.000002 -0.000001 0.000001 -5.482933 -15.251312 21.216772 0.126058 -1.077366 13.346865 0.062447 -0.760921 9.383435 -0.000001 0.000003 0.000001 -48.227081 -7.966547 35.976109 64.542897 -13.388577 -2.178947 -16.557133 2.455408 -18.718263 -12.557361 0.000006 0.000002 0.000000 -0.000002 -0.000000 -53.588373 17.788603 -18.994317 39.185202 2.833124 -6.368253 7.556082 -1.448153 30.089879 -14.099856 0.000003 0.000003 -0.000001 -0.000000 -0.000000 
-10.926566 72.353981 279.126007 11.961583 6.451567 -7.732336 10.854633 -6.238283 2.565984 6.917554 -4.324906 1.344988 6.824546 -4.263488 1.753433 -4.020121 -4.528549 1.402007 -18.487007 -21.889377 -1.331949 -0.000000 -0.000000 0.000000 -4.655693 -9.148946 -0.188515 -82.444720 -44.383823 -86.343515 -0.002065 -87.690101 -0.001980 16.231765 -31.643747 23.930019 7.216328 -10.216265 14.790742 5.369487 8.351755 0.897986 -7.854726 5.041999 13.574588 -0.000001 -0.000000 0.000001 -0.189505 -11.053823 -1.784042 0.040364 0.687285 -6.722513 0.110171 1.131986 -11.117332 0.000002 -0.000000 0.000003 -1.079035 -3.436001 -10.610998 0.061458 0.847257 -8.297341 0.028605 0.578867 -5.658140 0.000003 -0.000001 0.000001 -0.512630 1.212641 -16.334816 0.055877 0.808071 -7.911069 0.066543 0.881438 -8.634747 0.000000 0.000001 -0.000001 2.404945 8.997537 -23.065320 0.000055 0.024374 -0.237862 0.094071 1.046745 -10.270450 -0.000001 0.000000 -0.000002 -7.035229 18.722426 -2.351128 -17.233168 38.407161 -1.466965 -0.000004 26.253794 -0.000002 12.497860 -1.782996 -55.067236 -18.999052 7.777889 11.124327 7.174809 -21.295044 -2.658705 -6.943695 3.731729 -12.604577 -0.000000 0.000001 0.000002 1.975659 9.100025 -9.578277 0.149392 -1.171323 14.536198 0.048748 -0.672805 8.288123 -0.000001 -0.000000 0.000001 0.236709 0.602430 -3.851602 0.305127 -1.659629 20.834770 0.121081 -1.056139 13.079439 -0.000001 -0.000000 -0.000001 0.697981 -7.995629 6.713675 0.117474 -1.040522 12.882758 0.067258 -0.789467 9.738570 0.000002 -0.000003 -0.000000 -3.287157 -18.667925 17.565133 0.066043 -0.782338 9.649929 0.062275 -0.759881 9.370074 0.000000 -0.000001 -0.000001 -49.811911 -5.305725 32.062226 60.594317 -7.678850 -1.162103 -19.641377 2.118791 -16.879013 -5.310175 -0.000003 -0.000013 0.000000 -0.000002 -0.000000 -52.502500 15.556085 -18.563049 27.563879 2.696175 -7.135745 15.209687 -0.675294 30.749812 -12.015816 -0.000001 -0.000007 -0.000000 -0.000000 -0.000001 
